<svg width="37" height="37" viewBox="0 0 37 37" fill="none" xmlns="http://www.w3.org/2000/svg">
<path d="M32.5521 6.49979C32.4158 6.48575 32.2784 6.48575 32.1421 6.49979H4.14211C3.96265 6.50256 3.78438 6.52947 3.61211 6.57979L18.0621 20.9698L32.5521 6.49979Z" fill="white"/>
<path d="M34.0321 7.89014L19.4721 22.3901C19.0974 22.7626 18.5905 22.9717 18.0621 22.9717C17.5337 22.9717 17.0268 22.7626 16.6521 22.3901L2.2221 8.00014C2.17774 8.16318 2.15422 8.33118 2.1521 8.50014V28.5001C2.1521 29.0306 2.36281 29.5393 2.73789 29.9144C3.11296 30.2894 3.62167 30.5001 4.1521 30.5001H32.1521C32.6825 30.5001 33.1912 30.2894 33.5663 29.9144C33.9414 29.5393 34.1521 29.0306 34.1521 28.5001V8.50014C34.1441 8.29179 34.1037 8.08597 34.0321 7.89014ZM5.5221 28.5001H4.1321V27.0701L11.4021 19.8601L12.8121 21.2701L5.5221 28.5001ZM32.1321 28.5001H30.7321L23.4421 21.2701L24.8521 19.8601L32.1221 27.0701L32.1321 28.5001Z" fill="white"/>
</svg>
