<svg width="136" height="112" viewBox="0 0 136 112" fill="none" xmlns="http://www.w3.org/2000/svg">
<g clip-path="url(#clip0_113_4)">
<path d="M134.122 87.836C134.433 87.836 134.757 87.9203 135.195 87.6813C133.889 85.5791 132.632 83.5332 131.34 81.5084C131.029 81.0162 130.923 80.5592 131.036 79.9827C132.088 74.5551 133.133 69.1274 134.136 63.6857C134.355 62.5045 134.863 61.3304 134.68 60.1352C134.418 58.4127 133.967 56.7183 133.564 55.0169C131.891 47.937 130.457 40.7938 128.502 33.7772C126.595 26.9364 123.686 20.5807 118.963 15.1952C111.006 6.13271 100.81 1.72449 88.8639 1.26047C80.949 0.951117 73.4719 2.74393 66.5032 6.53346C66.0231 6.79359 65.67 6.80062 65.204 6.53346C57.2539 2.11117 48.7459 0.332419 39.6802 1.14094C33.3469 1.7034 27.4161 3.54543 21.9583 6.74438C12.0806 12.5236 5.34483 20.8549 1.94165 31.7805C-0.303596 38.9799 -0.578957 46.2988 0.995542 53.6529C2.48531 60.6062 5.51428 66.8635 10.1672 72.2701C18.8587 82.3661 29.9367 87.7375 43.2811 87.8008C73.5566 87.9484 103.839 87.85 134.122 87.843V87.836ZM12.01 52.767C7.61126 36.5262 16.4793 20.1307 31.6947 14.4008C43.7612 9.85896 54.8815 11.8978 64.9146 19.9409C65.1405 20.1167 65.3664 20.2854 65.5924 20.4612C70.0052 16.4959 75.1453 13.9297 80.942 12.7556C84.8464 11.9611 88.7862 11.8978 92.7613 12.5658C99.7936 13.7539 105.788 16.8545 110.773 21.8884C115.369 26.5357 118.271 32.0899 119.507 38.5089C119.86 40.3298 120.001 42.1648 120.128 44.0069C120.17 44.6607 119.951 44.8154 119.33 44.8154C112.637 44.7943 105.95 44.7943 99.257 44.8154C98.6074 44.8154 98.3744 44.6326 98.3179 43.9787C97.8872 39.0432 95.2113 35.7247 90.5655 34.2483C85.5666 32.6594 80.3418 34.9443 77.8141 39.5002C76.7551 41.4125 76.515 43.4655 76.5221 45.5817C76.8963 48.8439 78.3649 51.5015 81.0337 53.442C82.8271 54.7427 84.797 55.4528 87.0846 55.3895C90.5019 55.2981 93.9333 55.3332 97.3506 55.3825C98.2191 55.3965 98.4733 55.1083 98.4238 54.2857C98.3603 53.3014 98.4662 52.3101 98.3885 51.3258C98.3179 50.468 98.7627 50.4047 99.4264 50.4047C105.188 50.4188 110.942 50.4118 116.704 50.4118C117.763 50.4118 118.815 50.4399 119.867 50.3977C120.424 50.3696 120.686 50.5735 120.806 51.0938C121.505 54.1872 122.288 57.2667 122.889 60.3813C123.171 61.8296 122.536 63.2709 122.281 64.7051C121.611 68.4173 120.834 72.1154 120.128 75.8206C119.867 77.1845 119.902 77.1845 118.525 77.1845C107.779 77.1775 97.0258 77.2829 86.2797 77.1212C79.1768 77.0158 72.8153 74.5551 67.2022 70.196C66.6514 69.7672 66.129 69.2961 65.5994 68.8391C63.6719 70.3577 61.7585 71.8904 59.5909 73.0646C52.6645 76.8189 45.3004 78.1829 37.5691 76.5799C24.2459 73.8239 15.5191 65.7667 12.0029 52.767H12.01Z" fill="#81868E"/>
<path d="M89.7606 93.2496C89.7606 92.666 89.5558 92.4622 88.9839 92.4692C87.5435 92.4903 86.1032 92.5184 84.6629 92.4622C83.8438 92.427 83.6461 92.7153 83.6532 93.4957C83.6885 97.5453 83.6673 101.588 83.6814 105.638C83.6814 106.158 83.632 106.446 82.9754 106.446C78.4002 106.418 73.8249 106.425 69.2426 106.446C68.6707 106.446 68.5507 106.256 68.5578 105.736C68.586 103.444 68.6001 101.145 68.5507 98.853C68.5366 98.1289 68.7555 97.939 69.4686 97.9461C71.8974 97.9883 74.3333 97.932 76.7621 97.9812C77.5882 98.0023 77.8 97.7211 77.7576 96.9477C77.6941 95.7384 77.7012 94.5221 77.7576 93.3129C77.7859 92.6168 77.5247 92.4481 76.8751 92.4622C75.1806 92.4973 73.486 92.4621 71.7844 92.4762C69.7086 92.5043 67.6258 92.3708 65.55 92.6098C63.9331 92.7996 63.107 93.5168 62.6975 95.0987C62.5422 95.6963 62.5281 96.2939 62.521 96.8985C62.521 99.4506 62.521 101.996 62.521 104.548C62.521 106.439 62.521 106.397 60.6288 106.446C59.8592 106.467 59.6756 106.235 59.6827 105.483C59.7109 102.298 59.718 99.1061 59.6403 95.9212C59.5909 93.8613 58.5671 92.7715 56.569 92.5957C52.135 92.2091 47.6868 92.3567 43.2458 92.5043C41.6924 92.5536 40.3156 93.0246 39.8214 94.719C39.6096 95.4502 39.5178 96.2095 39.5178 96.9829C39.5249 99.8795 39.5178 102.783 39.5178 105.68C39.5178 105.989 39.6873 106.432 39.0871 106.425C38.3811 106.418 37.6821 106.425 36.976 106.425C36.743 106.425 36.6018 106.334 36.6018 106.102C36.5877 104.794 35.9099 103.985 34.6531 103.514C35.7687 103.078 36.3759 102.27 36.4747 101.25C36.6936 99.0077 36.8772 96.7368 36.2911 94.5151C36.0158 93.4605 35.225 92.8699 34.18 92.666C33.587 92.5465 32.9727 92.4903 32.3725 92.4903C27.2184 92.4762 22.0642 92.4903 16.917 92.4692C16.3028 92.4692 16.0839 92.6239 16.0839 93.2707C16.1051 99.2327 16.098 105.188 16.0839 111.15C16.0839 111.691 16.1898 111.958 16.8182 111.944C18.3503 111.902 19.8895 111.909 21.4287 111.944C22.0006 111.951 22.2124 111.782 22.1983 111.185C22.156 109.751 22.2054 108.316 22.1771 106.882C22.163 106.334 22.3536 106.186 22.8902 106.186C25.0366 106.214 27.176 106.214 29.3224 106.186C29.8237 106.186 29.9931 106.327 29.979 106.833C29.9508 108.267 30.0002 109.701 29.9578 111.136C29.9367 111.761 30.1344 111.951 30.7698 111.951C35.4439 111.93 40.1179 111.923 44.785 111.951C45.5122 111.951 45.6322 111.684 45.6181 111.058C45.5828 109.687 45.6322 108.316 45.5969 106.945C45.5828 106.355 45.7805 106.179 46.3665 106.186C48.5765 106.214 50.7864 106.207 52.9893 106.186C53.4977 106.186 53.653 106.355 53.6459 106.847C53.6248 108.183 53.7095 109.526 53.6177 110.861C53.5471 111.803 53.9142 111.958 54.7474 111.951C62.874 111.923 71.0078 111.937 79.1345 111.937C82.3682 111.937 85.6019 111.937 88.8286 111.937C89.3228 111.937 89.7676 112 89.7606 111.234C89.7394 105.244 89.7394 99.2538 89.7606 93.2566V93.2496ZM27.6843 101.082C27.1407 101.082 26.597 101.082 26.0534 101.082C24.966 101.082 23.8858 101.068 22.7985 101.082C22.3466 101.089 22.1348 100.941 22.1842 100.484C22.1842 100.421 22.1842 100.358 22.1842 100.294C22.1512 98.7382 22.9185 97.9601 24.4859 97.9601C26.0816 97.9601 27.6773 97.9812 29.273 97.9461C29.8237 97.932 29.9649 98.1078 29.9861 98.6421C30.0637 101.075 30.0779 101.075 27.6843 101.075V101.082ZM51.2877 101.082C50.744 101.082 50.2004 101.082 49.6567 101.082C48.5694 101.082 47.4821 101.054 46.4018 101.096C45.7593 101.124 45.5969 100.878 45.5899 100.266C45.5757 97.9601 45.5546 97.9601 47.8845 97.9601C49.5438 97.9601 51.21 97.9812 52.8693 97.9461C53.4341 97.932 53.6389 98.0796 53.653 98.6843C53.7024 101.075 53.7236 101.075 51.2877 101.075V101.082Z" fill="#81868E"/>
<path d="M135.4 100.118C131.912 100.132 128.424 100.132 124.936 100.118C124.435 100.118 124.251 100.294 124.258 100.786C124.28 101.707 124.287 102.635 124.258 103.556C124.244 104.098 124.449 104.288 124.986 104.273C126.327 104.252 127.676 104.33 129.017 104.245C129.949 104.182 129.984 104.653 129.949 105.335C129.921 105.933 130.09 106.495 129.067 106.453C126.927 106.362 124.781 106.404 122.634 106.439C122.027 106.446 121.808 106.319 121.822 105.666C121.865 103.402 121.879 101.138 121.822 98.8739C121.801 98.0935 122.048 97.9248 122.797 97.9318C126.701 97.967 130.606 97.9318 134.51 97.967C135.209 97.967 135.478 97.8053 135.435 97.067C135.372 95.8578 135.365 94.6415 135.435 93.4322C135.485 92.5955 135.167 92.4409 134.397 92.4479C130.013 92.483 125.628 92.4549 121.243 92.476C120.417 92.476 119.584 92.5393 118.758 92.6237C117.24 92.7854 116.4 93.5447 116.026 95.0141C115.877 95.6047 115.807 96.2023 115.807 96.8069C115.814 99.7387 115.814 102.67 115.807 105.602C115.807 105.869 115.955 106.326 115.637 106.362C114.882 106.446 114.077 106.509 113.364 106.319C112.997 106.221 113.223 105.518 113.223 105.089C113.202 102.256 113.23 99.4153 113.209 96.5819C113.187 94.3532 112.432 93.1299 110.815 92.694C110.264 92.5463 109.678 92.4901 109.113 92.469C103.995 92.2792 98.8757 92.4409 93.7568 92.3635C93.2202 92.3565 93.0367 92.4971 93.0367 93.0525C93.0508 99.1059 93.0508 105.166 93.0367 111.22C93.0367 111.768 93.2132 111.93 93.7568 111.916C95.2254 111.881 96.7011 111.86 98.1697 111.923C98.9534 111.958 99.1158 111.691 99.1087 110.96C99.0734 106.91 99.1087 102.86 99.0734 98.8177C99.0734 98.0935 99.2711 97.9037 99.9913 97.9248C102.039 97.974 104.086 97.981 106.134 97.9248C106.911 97.9037 107.165 98.0795 107.158 98.902C107.115 102.888 107.158 106.868 107.122 110.854C107.115 111.649 107.25 111.944 108.146 111.93C112.15 111.874 116.146 111.902 120.149 111.902V111.845C124.216 111.845 128.276 111.888 132.343 111.831C134.553 111.803 135.845 110.643 135.922 108.647C136.021 106.003 135.972 103.359 136.007 100.716C136.007 100.266 135.866 100.097 135.4 100.097V100.118Z" fill="#81868E"/>
<path d="M59.605 73.0646C61.7726 71.8905 63.686 70.3578 65.6135 68.8392C68.7272 65.8441 71.3467 62.4905 73.2036 58.5603C75.0888 54.574 76.0914 50.3907 76.3102 46.0036C76.3173 45.8489 76.3667 45.6942 76.3879 45.5396C76.3456 41.5743 75.8372 37.6863 74.5169 33.9179C72.7023 28.7363 69.7228 24.3421 65.7194 20.5948C65.6771 20.5526 65.6418 20.5034 65.5994 20.4542C65.3735 20.2784 65.1405 20.1097 64.9216 19.9339C54.8886 11.8909 43.7682 9.85196 31.7018 14.3938C16.4863 20.1237 7.61831 36.5192 12.017 52.7601C15.5332 65.7597 24.26 73.8169 37.5832 76.5729C45.3216 78.1759 52.6857 76.8119 59.605 73.0576V73.0646ZM32.7044 44.5693C32.7679 38.523 37.6891 33.7492 43.7753 33.8195C49.7768 33.8898 54.5991 38.7972 54.5356 44.7803C54.465 50.7212 49.4167 55.6497 43.5141 55.5372C37.4985 55.4176 32.6408 50.4962 32.7115 44.5693H32.7044Z" fill="#030E1E"/>
<path d="M76.1337 50.0671C75.0958 56.0994 72.5752 61.4286 68.5789 66.0759C67.9576 66.8001 67.3292 67.5172 66.6444 68.1851C66.3408 68.4804 66.0301 68.7405 65.6135 68.846C66.1501 69.2959 66.6655 69.774 67.2163 70.2029C72.8223 74.5619 79.1909 77.0226 86.2938 77.1281C97.04 77.2828 107.793 77.1843 118.539 77.1914C119.916 77.1914 119.881 77.1914 120.142 75.8274C120.848 72.1223 121.625 68.4242 122.295 64.712C122.557 63.2777 123.185 61.8364 122.903 60.3881C122.303 57.2735 121.519 54.1941 120.82 51.1006C120.7 50.5803 120.439 50.3764 119.881 50.4046C118.829 50.4538 117.77 50.4186 116.718 50.4186C110.956 50.4186 105.202 50.4186 99.4405 50.4116C98.7768 50.4116 98.332 50.4679 98.4026 51.3326C98.4803 52.3169 98.3744 53.3082 98.4379 54.2925C98.4874 55.1151 98.2332 55.3963 97.3647 55.3893C93.9404 55.3401 90.516 55.3049 87.0987 55.3963C84.8111 55.4596 82.8342 54.7425 81.0479 53.4488C78.3719 51.5084 76.9104 48.8508 76.5362 45.5886C76.5221 45.5886 76.5009 45.5886 76.4867 45.5815C76.4091 47.0861 76.395 48.5907 76.1337 50.0812V50.0671Z" fill="#CE0F18"/>
<path d="M68.579 66.0762C72.5752 61.4289 75.1029 56.0997 76.1337 50.0674C76.3879 48.5769 76.4091 47.0653 76.4868 45.5678C76.4515 45.5678 76.4161 45.5607 76.3808 45.5537C76.3526 45.7084 76.3102 45.8631 76.3032 46.0177C76.0843 50.4049 75.0817 54.5881 73.1965 58.5745C71.3396 62.5046 68.7202 65.8512 65.6065 68.8533C66.023 68.7478 66.3337 68.4877 66.6373 68.1924C67.3222 67.5245 67.9506 66.8074 68.5719 66.0832L68.579 66.0762Z" fill="#E6282C"/>
<path d="M69.7651 24.6303C73.1118 29.0104 75.2653 33.9248 76.1549 39.3595C76.4868 41.3914 76.5362 43.4514 76.4868 45.5113C76.5009 45.5254 76.5221 45.5395 76.5362 45.5746C76.5291 43.4514 76.7692 41.3984 77.8283 39.4931C80.3559 34.9372 85.5737 32.6452 90.5796 34.2412C95.2254 35.7176 97.9014 39.0361 98.3321 43.9716C98.3885 44.6255 98.6286 44.8153 99.2711 44.8083C105.964 44.7872 112.651 44.7942 119.344 44.8083C119.966 44.8083 120.191 44.6536 120.142 43.9998C120.015 42.1577 119.874 40.3227 119.521 38.5018C118.285 32.0828 115.383 26.5356 110.787 21.8813C105.802 16.8403 99.8077 13.7398 92.7754 12.5587C88.8003 11.8907 84.8676 11.954 80.9561 12.7485C75.1594 13.9226 70.0193 16.4958 65.6065 20.4541C67.2516 21.5931 68.5719 23.0554 69.7722 24.6162L69.7651 24.6303Z" fill="#CE0F18"/>
<path d="M65.7124 20.602C69.7087 24.3423 72.6882 28.7435 74.5098 33.9251C75.8301 37.6936 76.3385 41.5815 76.3809 45.5468C76.4232 45.4976 76.4585 45.4906 76.4868 45.5046C76.5362 43.4446 76.4868 41.3847 76.1549 39.3528C75.2582 33.9181 73.1118 29.0037 69.7651 24.6236C68.5648 23.0557 67.2445 21.5934 65.5994 20.4614C65.6347 20.5106 65.67 20.5599 65.7195 20.602H65.7124Z" fill="#E6282C"/>
<path d="M76.4868 45.5112V45.568C76.4868 45.568 76.5152 45.568 76.5365 45.5751C76.5223 45.5396 76.5081 45.5254 76.4868 45.5112Z" fill="#E6282C"/>
<path d="M76.4875 45.5683V45.5116C76.4875 45.5116 76.4235 45.5045 76.3809 45.5541C76.3809 45.5541 76.452 45.5683 76.4875 45.5683Z" fill="#E6282C"/>
<path d="M54.5285 44.7804C54.5991 38.7973 49.7768 33.8899 43.7683 33.8196C37.6821 33.7493 32.7679 38.5302 32.6973 44.5695C32.6338 50.4893 37.4844 55.4178 43.5 55.5373C49.4026 55.6498 54.4508 50.7213 54.5214 44.7804H54.5285Z" fill="#81868E"/>
</g>
<defs>
<clipPath id="clip0_113_4">
<rect width="136" height="111" fill="white" transform="translate(0 0.951172)"/>
</clipPath>
</defs>
</svg>
