<svg width="161" height="99" viewBox="0 0 161 99" fill="none" xmlns="http://www.w3.org/2000/svg">
<g clip-path="url(#clip0_114_16)">
<path d="M84.4883 60.6337C87.0507 60.6337 89.5723 60.3226 92.036 59.6115C99.9512 57.3278 105.29 50.8904 105.777 43.0548C106.339 33.9816 102.275 26.7032 94.9353 23.5888C91.0559 21.941 86.969 22.0607 82.8923 22.1017C81.4494 22.1154 80.4319 21.6026 80.3162 20.0334C80.2005 18.454 81.0921 17.5822 82.5554 17.3224C83.3823 17.1754 84.2466 17.1959 85.094 17.1925C107.359 17.1856 129.621 17.1856 151.887 17.172C152.605 17.172 153.354 17.3429 154.109 16.9497C156.243 11.5653 158.39 6.15012 160.639 0.47852C159.782 0.47852 159.227 0.47852 158.672 0.47852C133.916 0.471683 109.16 0.464845 84.4032 0.458008C82.1879 0.458008 80.0066 0.728084 77.8559 1.29217C68.4366 3.75704 62.9851 11.2884 63.5091 21.141C64.0196 30.7339 69.893 37.3183 79.3736 38.6926C81.7693 39.0379 84.233 38.8874 86.6661 38.9695C87.881 39.0105 88.7147 39.5267 88.9393 40.8156C89.1741 42.1694 88.5412 42.9933 87.3603 43.4787C86.2884 43.9163 85.1518 43.9061 84.0152 43.9061C65.265 43.9061 46.5114 43.9129 27.7612 43.9061C27.1725 43.9061 26.5395 44.0907 25.876 43.6497C28.4656 37.0755 31.0519 30.5151 33.8014 23.5341C36.3604 30.0023 38.7357 36.0055 41.0837 41.9403H59.1397C53.6712 28.0741 48.2639 14.3618 42.8771 0.704153H24.7326C16.8956 20.5838 9.06544 40.4429 1.13318 60.5687C1.86481 60.6132 2.30379 60.661 2.74277 60.661C29.9935 60.6542 57.2409 60.6439 84.4917 60.6337H84.4883Z" fill="#81868E"/>
<path d="M136.543 60.5004V19.0693H119.916V60.5038H136.543V60.5004Z" fill="#81868E"/>
<path d="M160.626 69.0811H0.166744C-0.010209 69.9426 -0.112297 70.6947 0.200773 71.5459H160.626V69.0811Z" fill="#CE0F18"/>
<path d="M86.2272 90.8788C87.9695 89.3848 88.65 87.4703 88.2009 85.2345C87.7415 82.9474 86.4211 81.156 84.1275 80.6843C81.0989 80.0586 77.9988 80.421 74.9464 80.5031V98.1469H78.2779V92.3146H81.691C82.9263 94.3248 84.1377 96.294 85.2573 98.1093H89.0652C87.7142 95.8461 86.4756 93.7744 85.2063 91.6514C85.6146 91.3437 85.9345 91.1318 86.2272 90.8822V90.8788ZM84.2773 88.2088C82.6132 90.2463 80.3469 88.9096 78.3153 89.2686V83.4055C80.4115 83.7098 82.6847 82.462 84.3215 84.5713C85.1995 85.7029 85.1552 87.1353 84.2807 88.2088H84.2773Z" fill="#81868E"/>
<path d="M4.75391 90.4787H12.0838C12.1451 89.4462 12.3697 88.6155 11.8559 87.6924H4.77773V83.4259H13.1966C13.3429 82.3456 13.411 81.4226 13.1796 80.4927H1.34076V98.1468H13.4825V95.2101H4.75391V90.4821V90.4787Z" fill="#81868E"/>
<path d="M103.922 95.1588V90.4821H111.235V87.7266H103.885C103.841 86.1882 103.633 84.8618 104.035 83.378H112.352C112.563 82.3251 112.62 81.4465 112.328 80.5234H100.465V98.157H112.59C112.675 97.1348 112.95 96.1947 112.375 95.1588H103.919H103.922Z" fill="#81868E"/>
<path d="M132.793 88.4174C131.401 87.9491 129.958 87.6209 128.57 87.1491C127.614 86.8243 126.817 86.2568 126.988 85.0466C127.154 83.8774 128.022 83.4501 129.033 83.3509C129.751 83.2826 130.489 83.3988 131.214 83.4843C132.446 83.6279 133.467 84.3868 134.648 84.8962C135.151 83.9526 135.594 83.1321 136.08 82.2228C132.885 80.322 129.754 79.546 126.395 81.0468C124.323 81.9732 123.387 83.7099 123.401 85.9662C123.415 88.1576 124.697 89.3986 126.61 90.0858C128.206 90.6567 129.843 91.1148 131.442 91.6823C132.405 92.0241 133.201 92.619 132.977 93.8087C132.759 94.9779 131.82 95.2069 130.799 95.3061C128.366 95.542 126.297 94.5334 124.252 93.3472C123.564 94.2018 123.146 95.1078 122.754 96.2189C125.599 98.0581 128.553 98.7658 131.762 98.3316C134.692 97.935 136.461 96.2838 136.686 93.7882C136.934 91.0327 135.801 89.4328 132.793 88.4208V88.4174Z" fill="#81868E"/>
<path d="M158.281 88.9474C156.821 88.3457 155.283 87.9355 153.772 87.4637C152.847 87.1766 151.924 86.8996 151.37 86.0313C151.128 82.828 153.633 82.4075 158.856 84.8006C159.458 84.0211 159.976 83.1972 160.214 82.1511C157.355 80.3836 154.422 79.7033 151.247 80.787C149.039 81.5426 147.712 83.3989 147.66 85.6587C147.609 87.9047 148.586 89.238 151.07 90.1406C152.503 90.6602 153.99 91.0397 155.429 91.5422C156.481 91.908 157.522 92.4379 157.257 93.8122C156.998 95.166 155.838 95.2515 154.732 95.3164C152.428 95.4464 150.458 94.472 148.426 93.255C147.929 94.2327 147.48 95.1182 147.045 95.9763C149.78 98.4343 155.263 99.2103 158.315 97.6412C160.163 96.6908 161.01 95.1523 160.997 93.0806C160.983 91.0944 160.061 89.6825 158.278 88.9474H158.281Z" fill="#81868E"/>
<path d="M59.1499 80.6503C56.2847 80.2879 53.3377 80.5683 50.4248 80.5683V98.1574C51.5546 98.2873 52.5448 98.3591 53.678 98.089V92.2294C55.2332 92.2294 56.5229 92.2533 57.8126 92.226C60.8718 92.161 63.094 90.0756 63.4547 86.9646C63.7745 84.1989 61.8621 80.9956 59.1499 80.6537V80.6503ZM59.5515 88.0723C58.112 90.3081 55.8355 88.7868 53.8482 89.4295V83.3579C55.8525 83.7135 58.0134 82.5477 59.4698 84.5271C60.2457 85.5801 60.2661 86.9646 59.5515 88.0723Z" fill="#81868E"/>
<path d="M35.8432 80.4824C34.4208 82.5849 32.9847 84.7148 31.4432 86.9984C29.8336 84.6327 28.3805 82.4926 27.05 80.5371H23.3918C25.5119 83.5968 27.4958 86.4617 29.5716 89.4565C27.5298 92.4136 25.6003 95.2101 23.5382 98.198H27.2099C28.5847 96.1468 29.9595 94.1025 31.4398 91.9008C32.9711 94.1743 34.3561 96.2323 35.6424 98.1468H39.2904C37.1942 95.1144 35.2443 92.2974 33.2672 89.4394C35.3259 86.4856 37.3371 83.5968 39.5048 80.4824H35.8432Z" fill="#81868E"/>
</g>
<defs>
<clipPath id="clip0_114_16">
<rect width="161" height="98" fill="white" transform="translate(0 0.458008)"/>
</clipPath>
</defs>
</svg>
