<svg width="180" height="122" viewBox="0 0 180 122" fill="none" xmlns="http://www.w3.org/2000/svg">
<g clip-path="url(#clip0_114_27)">
<path d="M30.9803 69.4602C31.5023 68.9447 31.8762 68.3136 32.123 67.5271C32.4058 66.6268 32.5861 65.7341 32.6601 64.8756C32.7398 63.9545 32.7797 63.041 32.7797 62.1596C32.7797 61.0945 32.7057 60.0369 32.5576 59.0173C32.4172 58.0488 32.1818 57.158 31.8591 56.3734C31.5744 55.6816 31.2024 55.149 30.7241 54.7434C30.3331 54.4118 29.8738 54.2563 29.2835 54.2563C29.1715 54.2563 29.0652 54.2639 28.9608 54.2753C28.9931 59.3944 29.0936 64.7903 29.3119 70.063C30.037 70.0573 30.5684 69.8658 30.9803 69.4602Z" fill="#81868E"/>
<path d="M46.0548 53.7329H44.0163C44.1719 54.2503 44.246 54.8947 44.246 55.7002V59.7125C44.7679 59.341 45.2918 58.9714 45.8195 58.6038V55.7002C45.8195 55.0748 45.8574 54.3678 46.0548 53.7329Z" fill="#81868E"/>
<path d="M41.3097 54.6258C41.1882 54.5803 40.9471 54.5102 40.5163 54.459H39.1193V50.8921H51.3619V54.459H49.9516C49.2778 54.4988 48.9247 54.5803 48.7596 54.6333C48.7197 54.7869 48.6666 55.1072 48.6666 55.7023V56.6594C49.8054 55.8937 50.9557 55.1375 52.1135 54.3908L52.0471 54.387V50.8921H57.7109C91.6162 30.3397 129.697 18.2175 129.697 18.2175L81.9379 7.57178C81.9379 7.57178 46.0529 14.734 36.1659 17.0557C26.2788 19.3793 29.3822 26.733 29.3822 26.733C29.3822 26.733 28.9551 37.2328 28.9513 50.4637C29.0633 50.4599 29.1734 50.4562 29.2854 50.4562C30.8171 50.4562 32.2786 50.7348 33.63 51.2844C34.9853 51.8359 36.1981 52.6357 37.2364 53.6611C38.2803 54.6921 39.1022 55.9506 39.683 57.4023C40.2581 58.839 40.5485 60.4405 40.5485 62.1576C40.5485 62.2448 40.5447 62.33 40.5428 62.4172C40.8275 62.2031 41.1123 61.9908 41.3989 61.7785V55.6985C41.3989 55.0977 41.3476 54.7755 41.3097 54.622V54.6258Z" fill="#81868E"/>
<path d="M37.7014 62.1595C37.7014 60.8043 37.4774 59.5591 37.039 58.458C36.6043 57.372 35.9969 56.4376 35.232 55.6833C34.9454 55.4009 34.6417 55.1413 34.3228 54.9062C34.3817 55.0313 34.4386 55.1602 34.4918 55.2891C34.9056 56.2917 35.2036 57.4099 35.3763 58.6115C35.5433 59.7657 35.6268 60.9598 35.6268 62.1595C35.6268 63.1223 35.5832 64.1192 35.4959 65.1199C35.456 65.5804 35.3896 66.0486 35.3023 66.5186C35.9837 65.9614 36.6727 65.408 37.3693 64.8583C37.5875 64.0168 37.6976 63.1147 37.6976 62.1595H37.7014Z" fill="#81868E"/>
<path d="M110.153 67.3088C110.092 66.7061 110.062 66.0541 110.062 65.3737V55.7002C110.062 55.0748 110.1 54.3678 110.297 53.7329H108.259C108.414 54.2503 108.488 54.8947 108.488 55.7002V65.3737C108.488 66.9297 108.676 67.6916 108.832 68.0593C109.058 68.5862 109.433 69.096 109.95 69.5736C110.263 69.856 110.625 70.1024 111.02 70.2919C111.083 70.3222 111.147 70.3526 111.212 70.381C111.013 70.0967 110.846 69.7897 110.711 69.4618C110.409 68.7283 110.221 68.0043 110.153 67.3088Z" fill="#81868E"/>
<path d="M75.1295 70.4686H77.0883L73.1214 64.6084C72.7418 64.9135 72.364 65.2149 71.9882 65.5181L75.1314 70.4705L75.1295 70.4686Z" fill="#81868E"/>
<path d="M134.526 68.5009V53.7329H132.869V68.5009C132.869 69.2325 132.806 69.8143 132.679 70.2805C132.662 70.345 132.643 70.4075 132.622 70.4682H134.761C134.744 70.417 134.729 70.3639 134.714 70.309C134.587 69.8465 134.524 69.2552 134.524 68.5009H134.526Z" fill="#81868E"/>
<path d="M66.6622 70.4683C66.6337 70.3849 66.6091 70.2997 66.5882 70.2125C66.5673 70.1272 66.5483 70.0362 66.5312 69.9434C66.3168 70.1196 66.1023 70.294 65.8897 70.4683H66.6641H66.6622Z" fill="#81868E"/>
<path d="M69.2645 68.5009C69.2645 69.1017 69.3157 69.3936 69.3461 69.513C69.3499 69.53 69.3537 69.5433 69.3575 69.5547C69.3689 69.5585 69.3841 69.5622 69.4011 69.566C69.5625 69.6058 69.8832 69.6703 70.4887 69.7575L71.3884 69.8863L69.7542 67.3145C69.589 67.4471 69.4258 67.5798 69.2626 67.7125V68.5009H69.2645Z" fill="#81868E"/>
<path d="M127.325 69.8733L128.613 69.752C129.318 69.6857 129.678 69.6307 129.859 69.5966C129.881 69.5928 129.9 69.5871 129.917 69.5834C129.923 69.5682 129.927 69.5511 129.933 69.5303C129.965 69.4109 130.02 69.1171 130.02 68.503V54.8173C129.982 54.8248 129.944 54.8305 129.906 54.8381C129.58 54.9007 129.234 55.0428 128.883 55.2608C128.594 55.4389 128.321 55.7573 128.072 56.2046C127.793 56.7069 127.598 57.4119 127.492 58.3046L127.342 59.5573H123.828L123.901 54.4647C123.477 54.533 123.259 54.6164 123.168 54.66C123.136 54.7642 123.082 55.0144 123.082 55.4996V64.7371C123.082 65.8667 122.944 67.0247 122.669 68.179C122.365 69.4602 121.858 70.5007 121.162 71.2758C120.376 72.1666 119.334 72.8394 118.07 73.2659C116.899 73.662 115.741 73.8629 114.625 73.8629C114.217 73.8629 113.763 73.842 113.279 73.8003C112.763 73.7549 112.206 73.6601 111.622 73.5198C111.003 73.3701 110.384 73.1446 109.779 72.8527C109.141 72.5438 108.551 72.1458 108.025 71.67C107.203 70.91 106.598 70.0742 106.214 69.1778C105.829 68.2775 105.641 67.0342 105.641 65.3758V55.7024C105.641 55.1016 105.59 54.7794 105.552 54.6258C105.43 54.5804 105.189 54.5102 104.758 54.4591H103.361V50.8922H115.604V54.4591H114.194C113.52 54.4989 113.167 54.5804 113.002 54.6334C112.962 54.7869 112.909 55.1072 112.909 55.7024V65.3758C112.909 65.9634 112.935 66.5206 112.985 67.0304C113.026 67.4512 113.148 67.906 113.343 68.3836C113.49 68.7381 113.727 69.028 114.067 69.2649C114.385 69.4886 114.864 69.6023 115.488 69.6023C116.352 69.6023 117.018 69.4545 117.466 69.1645C117.929 68.865 118.254 68.5106 118.455 68.0842C118.702 67.5611 118.855 67.0532 118.912 66.5718C118.979 65.9899 119.015 65.3721 119.015 64.7371V55.9033C119.015 55.0674 118.861 54.7604 118.816 54.6865C118.755 54.6486 118.463 54.4989 117.639 54.4553L116.289 54.3851V50.8903H134.816V30.0366C134.816 30.0366 148.374 16.0002 164.081 8.6806C165.345 8.09117 126.355 23.2174 78.3771 60.4557C78.0241 61.0963 77.5856 61.6327 77.0713 62.0553C76.5626 62.4723 76.0349 62.8058 75.5015 63.0484L80.0341 69.7444H81.4691V73.3114H73.5636L71.7111 70.3945V73.3114H62.4504C25.7208 103.897 16.5398 118.516 17.9273 117.303C19.478 115.947 36.9251 98.9146 45.8404 93.8827C72.7854 116.143 73.3662 117.249 73.9489 117.373C74.5297 117.496 80.3454 127.702 89.8434 117.373C102.249 106.657 131.132 82.8484 131.132 82.8484C131.132 82.8484 134.636 80.267 134.807 73.3114H127.323V69.8733H127.325ZM106.237 73.3114H94.3836V69.7444H95.8299C96.1203 69.7198 96.3462 69.6933 96.5227 69.6705C96.4392 69.373 96.3367 69.0508 96.2171 68.7134C96.0956 68.3704 95.9571 68.0027 95.8052 67.6217C95.8033 67.6161 95.8014 67.6123 95.7995 67.6066H91.4852C91.0866 68.7039 90.8873 69.3161 90.7886 69.6535C90.9898 69.6914 91.2632 69.7274 91.6314 69.7482L92.9771 69.8222V73.3132H84.487V69.9662L85.6733 69.7653C86.1232 69.6895 86.2314 69.536 86.2674 69.4867C86.4098 69.2858 86.7362 68.7324 87.3095 67.2616L93.8331 50.4866H96.5436L103.103 66.6059C103.923 68.6205 104.329 69.3313 104.498 69.5758C104.599 69.7217 104.664 69.7444 104.815 69.7444H106.239V73.3114H106.237Z" fill="#81868E"/>
<path d="M95.2168 54.7793L94.5013 56.6196L98.4341 66.4788H98.4113C98.4227 66.5092 98.436 66.5414 98.4492 66.5736C98.6144 66.9887 98.7662 67.3905 98.8991 67.7695C99.0395 68.1656 99.161 68.5447 99.2597 68.8991C99.3907 69.3653 99.4514 69.7273 99.4514 70.0382C99.4514 70.1917 99.4419 70.3357 99.423 70.4703H101.72C101.372 69.8183 100.96 68.9048 100.461 67.6766L95.2131 54.7812L95.2168 54.7793Z" fill="#81868E"/>
<path d="M92.96 63.634H94.2355L93.575 61.9775L92.96 63.634Z" fill="#81868E"/>
<path d="M19.0149 53.246H18.9864C18.5973 53.3047 18.25 53.4052 17.9444 53.5492C17.6388 53.6933 17.3655 53.9681 17.1244 54.3737L11.8155 63.38V68.7095C11.8155 69.3084 11.8573 69.7766 11.9408 70.1139C12.0243 70.4513 12.1591 70.6977 12.3432 70.8531C12.5273 71.0085 12.7645 71.1184 13.0512 71.1866C13.3378 71.2549 13.7781 71.3174 14.3722 71.3743V72.0983H4.7262V71.3743H4.75467C5.34687 71.2966 5.78343 71.2302 6.06055 71.1715C6.33767 71.1127 6.56923 71.0028 6.75524 70.8379C6.93936 70.6749 7.07981 70.4285 7.17282 70.0988C7.26583 69.7709 7.31138 69.3065 7.31138 68.7095V64.4527L2.22454 54.838C2.03853 54.4912 1.7709 54.1481 1.41786 53.8108C1.06482 53.4734 0.592199 53.2858 0 53.246V52.522H9.31195V53.246C8.36671 53.246 7.75553 53.3085 7.47651 53.4336C7.19939 53.5587 7.05894 53.824 7.05894 54.2296C7.05894 54.385 7.10069 54.5575 7.18421 54.7508C7.26772 54.9441 7.393 55.1943 7.56003 55.5032L7.72706 55.8501L11.0639 62.5688L14.1501 57.2109C14.2052 57.1332 14.2925 56.9797 14.414 56.7484C14.5335 56.5172 14.6588 56.267 14.7898 55.996C14.9189 55.725 15.0252 55.4559 15.1087 55.1848C15.1922 54.9157 15.2339 54.6921 15.2339 54.5196C15.2339 54.0173 15.0536 53.6952 14.6911 53.5492C14.3305 53.4052 13.7421 53.3028 12.9259 53.246H12.8974V52.522H19.013V53.246H19.0149Z" fill="#CE0F18"/>
<path d="M33.3036 52.8119C34.4899 53.2952 35.5357 53.9851 36.4449 54.8815C37.3522 55.7799 38.0621 56.8659 38.5707 58.1395C39.0794 59.4131 39.3357 60.8232 39.3357 62.3679C39.3357 63.9125 39.0946 65.26 38.6125 66.5242C38.1304 67.7883 37.4452 68.88 36.555 69.7973C35.6648 70.7146 34.619 71.4197 33.4137 71.9124C32.2084 72.4052 30.9025 72.6516 29.4942 72.6516C28.0858 72.6516 26.7799 72.4052 25.5746 71.9124C24.3694 71.4197 23.3235 70.7146 22.4333 69.7973C21.5431 68.88 20.8579 67.7902 20.3758 66.5242C19.8937 65.26 19.6526 63.8746 19.6526 62.3679C19.6526 60.8611 19.907 59.4131 20.4176 58.1395C20.9263 56.8659 21.6361 55.7799 22.5453 54.8815C23.4526 53.9832 24.506 53.2933 25.6999 52.8119C26.8957 52.3286 28.1598 52.0879 29.4942 52.0879C30.8285 52.0879 32.1173 52.3286 33.3036 52.8119ZM27.133 53.8695C26.4838 54.4191 25.9751 55.1431 25.6031 56.0414C25.233 56.9398 24.9673 57.9348 24.8116 59.0246C24.6541 60.1163 24.5744 61.2307 24.5744 62.3697C24.5744 63.2965 24.6161 64.2385 24.6996 65.1937C24.7831 66.1489 24.9862 67.1345 25.3108 68.1484C25.6354 69.1624 26.1346 70.0077 26.8122 70.6824C27.4879 71.359 28.3819 71.6964 29.4942 71.6964C30.6064 71.6964 31.5042 71.359 32.1913 70.6824C32.8765 70.0077 33.3776 69.1662 33.6927 68.1636C34.0078 67.1591 34.2071 66.1755 34.2906 65.2089C34.3741 64.2442 34.4159 63.2965 34.4159 62.3697C34.4159 61.2307 34.3361 60.1163 34.1786 59.0246C34.0211 57.9348 33.7572 56.9398 33.3871 56.0414C33.017 55.1431 32.5064 54.4191 31.8573 53.8695C31.2081 53.3198 30.4204 53.0431 29.4942 53.0431C28.5679 53.0431 27.7802 53.3179 27.1311 53.8695H27.133Z" fill="#CE0F18"/>
<path d="M59.7969 53.246C58.9637 53.3616 58.3923 53.5738 58.0867 53.8828C57.7812 54.1917 57.6274 54.8001 57.6274 55.7079V64.9455C57.6274 65.9689 57.5021 67.0076 57.2516 68.0594C57.001 69.1113 56.6081 69.9377 56.071 70.5366C55.4408 71.2511 54.6114 71.7818 53.5826 72.1286C52.5539 72.4754 51.5574 72.6498 50.595 72.6498C50.2249 72.6498 49.8168 72.6308 49.3727 72.591C48.9285 72.5512 48.4464 72.4697 47.9264 72.3446C47.4082 72.2196 46.8881 72.0319 46.3699 71.7799C45.8499 71.5297 45.3791 71.2113 44.9521 70.8246C44.284 70.2068 43.798 69.5415 43.4925 68.827C43.1869 68.1125 43.0331 67.0322 43.0331 65.5842V55.9107C43.0331 54.8096 42.8794 54.1159 42.5738 53.8259C42.2682 53.5359 41.6798 53.3445 40.8086 53.246H40.7535V52.522H50.149V53.246H50.1205C49.0633 53.3047 48.3553 53.4734 47.9947 53.752C47.6341 54.0325 47.4518 54.7508 47.4518 55.9088V65.5823C47.4518 66.2191 47.4803 66.818 47.5354 67.3771C47.5904 67.9381 47.7441 68.5219 47.9947 69.1303C48.2452 69.7386 48.6514 70.2409 49.217 70.637C49.7827 71.0331 50.5286 71.2302 51.4549 71.2302C52.6032 71.2302 53.5219 71.0085 54.2071 70.565C54.8923 70.1215 55.3934 69.5662 55.7085 68.899C56.0235 68.2338 56.2171 67.5818 56.2931 66.945C56.3671 66.3082 56.4051 65.6411 56.4051 64.9474V56.1135C56.4051 55.128 56.2285 54.4191 55.8774 53.9851C55.5243 53.5511 54.7936 53.3047 53.6813 53.246V52.522H59.7969V53.246Z" fill="#CE0F18"/>
<path d="M80.2562 72.1002H74.5582L68.8033 63.0351H68.0516V68.7114C68.0516 69.2914 68.0934 69.7443 68.1769 70.0722C68.2604 70.4001 68.3952 70.6465 68.5793 70.8114C68.7634 70.9763 68.9969 71.0919 69.274 71.1582C69.5511 71.2264 69.9592 71.2985 70.4964 71.3762V72.1002H61.1009V71.3762C61.676 71.2985 62.0974 71.2264 62.365 71.1582C62.6326 71.09 62.8604 70.9744 63.0464 70.8114C63.2305 70.6484 63.3615 70.402 63.4355 70.0722C63.5095 69.7443 63.5475 69.2895 63.5475 68.7114V55.9107C63.5475 54.7717 63.3767 54.0571 63.0331 53.7672C62.6896 53.4772 62.0461 53.3047 61.1009 53.246V52.522H70.0522C70.7925 52.522 71.5669 52.5694 72.3735 52.666C73.1802 52.7627 74.0097 52.9749 74.8619 53.3028C75.7142 53.6307 76.4335 54.1481 77.0162 54.8513C77.6008 55.5563 77.8913 56.4774 77.8913 57.6165C77.8913 58.4466 77.747 59.1554 77.4604 59.7449C77.1738 60.3343 76.8113 60.8062 76.3766 61.1644C75.9419 61.5226 75.5016 61.7974 75.0555 61.9889C74.6114 62.1822 74.1198 62.366 73.5826 62.5385L73.5276 62.5669L79.1155 70.8208C79.2825 71.0521 79.4572 71.2018 79.6432 71.27C79.8273 71.3383 80.0323 71.3705 80.2544 71.3705V72.0945L80.2562 72.1002ZM68.0516 62.1083C69.0329 62.0893 69.8358 62.0268 70.4565 61.9206C71.0772 61.8145 71.5878 61.6022 71.9863 61.2838C72.3849 60.9654 72.6772 60.5162 72.8614 59.9363C73.0455 59.3563 73.1385 58.6039 73.1385 57.6771C73.1385 56.2291 72.8614 55.1716 72.3052 54.5063C71.7491 53.8411 70.9063 53.5075 69.7751 53.5075C69.0709 53.5075 68.6249 53.5852 68.4407 53.7387C68.2547 53.8942 68.1257 54.222 68.0516 54.7243V62.1083Z" fill="#CE0F18"/>
<path d="M105.024 72.1H96.0178V71.376H96.1014C97.0086 71.2983 97.5932 71.2017 97.8533 71.0861C98.1133 70.9705 98.2424 70.69 98.2424 70.2465C98.2424 70.0721 98.1949 69.8219 98.1038 69.494C98.0108 69.1662 97.8988 68.8174 97.7698 68.4516C97.6407 68.0859 97.4964 67.703 97.3389 67.3069C97.1814 66.9108 97.0561 66.6075 96.9631 66.3953H90.7089L90.6805 66.454C89.8833 68.5976 89.4847 69.8238 89.4847 70.1327C89.4847 70.616 89.6878 70.9344 90.0959 71.088C90.5039 71.2434 91.0601 71.34 91.7643 71.3779V72.1019H86.1213V71.3779C86.8065 71.2623 87.3114 70.978 87.636 70.5232C87.9605 70.0702 88.3629 69.2249 88.845 67.9892L95.0157 52.1182H95.7939L101.993 67.3524C102.659 68.9937 103.174 70.074 103.536 70.5952C103.897 71.1164 104.394 71.3779 105.024 71.3779V72.1019V72.1ZM96.5455 65.2657L93.7383 58.2285L91.1246 65.2657H96.5455Z" fill="#CE0F18"/>
<path d="M124.039 53.246C123.206 53.3616 122.635 53.5738 122.329 53.8828C122.023 54.1917 121.87 54.8001 121.87 55.7079V64.9455C121.87 65.9689 121.744 67.0076 121.494 68.0594C121.243 69.1113 120.85 69.9377 120.313 70.5366C119.683 71.2511 118.854 71.7818 117.825 72.1286C116.796 72.4754 115.8 72.6498 114.837 72.6498C114.467 72.6498 114.059 72.6308 113.615 72.591C113.171 72.5512 112.689 72.4697 112.169 72.3446C111.65 72.2196 111.13 72.0319 110.612 71.7799C110.092 71.5297 109.621 71.2113 109.194 70.8246C108.526 70.2068 108.04 69.5415 107.735 68.827C107.429 68.1125 107.275 67.0322 107.275 65.5842V55.9107C107.275 54.8096 107.122 54.1159 106.816 53.8259C106.51 53.5359 105.922 53.3445 105.051 53.246H104.996V52.522H114.391V53.246H114.363C113.306 53.3047 112.598 53.4734 112.237 53.752C111.876 54.0325 111.694 54.7508 111.694 55.9088V65.5823C111.694 66.2191 111.723 66.818 111.778 67.3771C111.833 67.9381 111.986 68.5219 112.237 69.1303C112.487 69.7386 112.894 70.2409 113.459 70.637C114.025 71.0331 114.771 71.2302 115.697 71.2302C116.845 71.2302 117.764 71.0085 118.449 70.565C119.134 70.1215 119.636 69.5662 119.951 68.899C120.266 68.2338 120.459 67.5818 120.535 66.945C120.609 66.3082 120.647 65.6411 120.647 64.9474V56.1135C120.647 55.128 120.471 54.4191 120.12 53.9851C119.767 53.5511 119.036 53.3047 117.924 53.246V52.522H124.039V53.246Z" fill="#CE0F18"/>
<path d="M138.884 72.1002H128.959V71.3762C129.57 71.3175 130.029 71.2606 130.335 71.2019C130.641 71.1431 130.891 71.0332 131.085 70.8683C131.28 70.7053 131.423 70.4532 131.516 70.1159C131.609 69.7785 131.654 69.3104 131.654 68.7115V53.4488H131.626C130.94 53.4886 130.346 53.555 129.847 53.6516C129.346 53.7483 128.847 53.9511 128.346 54.26C127.845 54.5689 127.41 55.056 127.04 55.7231C126.67 56.3884 126.419 57.2621 126.29 58.3443H125.484L125.567 52.5239H142.247L142.302 58.3443H141.496C141.367 57.264 141.116 56.3903 140.746 55.7231C140.376 55.0579 139.939 54.5689 139.44 54.26C138.939 53.9511 138.444 53.7483 137.952 53.6516C137.46 53.555 136.872 53.4886 136.187 53.4488H136.158V68.7115C136.158 69.3293 136.204 69.8069 136.297 70.1443C136.39 70.4817 136.538 70.7337 136.741 70.8967C136.944 71.0616 137.2 71.1715 137.506 71.2303C137.812 71.289 138.271 71.3364 138.882 71.3743V72.0983L138.884 72.1002Z" fill="#CE0F18"/>
<path d="M157.288 52.8119C158.474 53.2952 159.52 53.9851 160.429 54.8815C161.336 55.7799 162.046 56.8659 162.555 58.1395C163.063 59.4131 163.32 60.8232 163.32 62.3679C163.32 63.9125 163.079 65.26 162.597 66.5242C162.114 67.7883 161.429 68.88 160.539 69.7973C159.649 70.7146 158.603 71.4197 157.398 71.9124C156.192 72.4052 154.887 72.6516 153.478 72.6516C152.07 72.6516 150.764 72.4052 149.559 71.9124C148.353 71.4197 147.308 70.7146 146.417 69.7973C145.527 68.88 144.842 67.7902 144.36 66.5242C143.878 65.26 143.637 63.8746 143.637 62.3679C143.637 60.8611 143.891 59.4131 144.402 58.1395C144.91 56.8659 145.62 55.7799 146.529 54.8815C147.437 53.9832 148.49 53.2933 149.684 52.8119C150.88 52.3286 152.144 52.0879 153.478 52.0879C154.813 52.0879 156.101 52.3286 157.288 52.8119ZM151.117 53.8695C150.468 54.4191 149.959 55.1431 149.587 56.0414C149.217 56.9398 148.951 57.9348 148.796 59.0246C148.638 60.1163 148.558 61.2307 148.558 62.3697C148.558 63.2965 148.6 64.2385 148.684 65.1937C148.767 66.1489 148.97 67.1345 149.295 68.1484C149.619 69.1624 150.119 70.0077 150.796 70.6824C151.472 71.359 152.366 71.6964 153.478 71.6964C154.59 71.6964 155.488 71.359 156.175 70.6824C156.861 70.0077 157.362 69.1662 157.677 68.1636C157.992 67.1591 158.191 66.1755 158.275 65.2089C158.358 64.2442 158.4 63.2965 158.4 62.3697C158.4 61.2307 158.32 60.1163 158.163 59.0246C158.005 57.9348 157.741 56.9398 157.371 56.0414C157.001 55.1431 156.49 54.4191 155.841 53.8695C155.192 53.3198 154.404 53.0431 153.478 53.0431C152.552 53.0431 151.764 53.3179 151.115 53.8695H151.117Z" fill="#CE0F18"/>
</g>
<defs>
<clipPath id="clip0_114_27">
<rect width="180" height="121" fill="white" transform="translate(0 0.989258)"/>
</clipPath>
</defs>
</svg>
