<svg width="257" height="67" viewBox="0 0 257 67" fill="none" xmlns="http://www.w3.org/2000/svg">
<g clip-path="url(#clip0_115_67)">
<path d="M0.072337 53.1895C0.236604 53.9144 0.387387 54.6442 0.588431 55.3591C2.41744 61.8417 8.4512 66.4414 15.1077 66.4414C35.1961 66.4414 55.2834 66.4141 75.3718 66.4613C80.0608 66.4724 83.9872 64.8775 87.2419 61.4941C88.5855 60.0978 89.9634 58.735 91.3278 57.3586C92.4862 56.1907 93.8188 55.5614 95.5215 55.5899C99.6135 55.6582 103.708 55.6036 107.802 55.6148C109.484 55.6197 110.852 56.2353 111.719 57.7793C111.987 58.2584 112.323 58.6978 112.615 59.1645C114.99 62.9761 118.301 65.4212 122.727 66.2205C123.498 66.3595 124.278 66.4451 125.068 66.4439C139.158 66.4377 153.248 66.4476 167.338 66.434C170.584 66.4315 173.573 65.5391 176.176 63.5247C176.499 63.274 176.817 63.2553 177.167 63.2553C180.19 63.2529 183.213 63.2529 186.235 63.2529C195.303 63.2529 204.372 63.2814 213.44 63.238C216.916 63.2218 220.245 62.4635 223.129 60.3883C227.286 57.3983 229.211 53.2503 228.969 48.1206C228.858 45.7488 228.581 43.3831 228.33 41.0187C228.278 40.5222 228.436 40.2951 228.811 40.0419C234.542 36.1794 240.306 32.3678 245.914 28.3228C248.294 26.6063 250.64 24.8501 252.855 22.9139C255.018 21.0248 256.271 18.6319 256.783 15.8417C257.949 9.4907 254.292 3.20049 248.26 1.12775C247.588 0.896891 246.893 0.736781 246.203 0.559295C246.07 0.544401 245.94 0.515854 245.815 0.45752H161.258C160.966 0.611424 160.654 0.504684 160.351 0.527025C159.076 0.625076 157.791 0.613906 156.538 0.92792C152.991 1.82032 149.942 3.66592 147.288 6.13211C144.559 8.66656 141.996 11.3797 139.749 14.3759C139.502 14.7048 139.26 15.0648 138.857 15.2609C138.577 14.8984 138.482 14.4975 138.346 14.1177C137.638 12.153 136.572 10.3955 135.215 8.83164C131.956 5.07464 127.763 2.8964 123.08 1.5212C120.046 0.630041 116.947 0.559295 113.837 0.530748C113.837 0.546883 113.837 0.561777 113.837 0.577912C113.481 0.585359 113.124 0.599012 112.767 0.599012C96.8712 0.599012 80.974 0.599012 65.0781 0.599012C64.817 0.599012 64.5559 0.587842 64.2948 0.581636C64.2948 0.563018 64.2948 0.545642 64.2923 0.528266C62.3125 0.52206 60.3241 0.519578 58.3824 0.891926C53.5169 1.8228 49.1294 3.93153 45.0412 6.70553C42.1947 8.63678 39.5603 10.8535 36.9013 13.033C33.2458 16.0291 29.5779 19.0092 25.9077 21.988C22.9423 24.3946 19.999 26.8285 17.0238 29.2252C14.4776 31.2756 11.9449 33.3446 9.42577 35.431C7.44108 37.0743 5.29825 38.5413 3.58325 40.4924C1.73585 42.5925 0.360418 44.9432 0.123824 47.8401C0.0894993 48.2621 0.155697 48.7015 -0.00244141 49.1123V52.8656C0.0686594 52.9661 0.0735629 53.0753 0.0698853 53.1858L0.072337 53.1895ZM8.96362 42.7451C17.736 35.6345 26.4753 28.4805 35.2439 21.3649C39.266 18.1019 43.1913 14.7147 47.3826 11.6677C51.3471 8.78447 55.6768 6.75145 60.5338 5.98317C61.7057 5.79824 62.8887 5.6493 64.0802 5.65054C80.9091 5.65178 97.7379 5.59345 114.567 5.69895C119.519 5.72998 124.268 6.94011 128.415 9.87918C131.505 12.0686 133.553 14.9853 134.045 18.8441C134.436 21.9234 133.7 24.8017 132.278 27.5136C130.197 31.4816 127.014 34.4045 123.427 36.9303C121.984 37.9468 120.468 38.8417 118.928 39.6993C118.288 40.0555 117.661 40.4341 117.039 41.0001C118.396 41.2781 119.658 41.0745 120.92 40.9628C124.007 40.691 126.378 39.0564 128.507 36.934C132.044 33.4104 134.993 29.3952 138.001 25.4272C141.253 21.1353 144.452 16.7987 148.128 12.8567C150.452 10.3645 152.938 8.07577 156.155 6.7651C158.349 5.87023 160.645 5.52642 162.979 5.52518C189.995 5.50408 217.012 5.50284 244.028 5.50905C247.123 5.50905 249.471 6.93018 250.971 9.64088C252.448 12.3094 252.32 15.0226 250.823 17.6588C250.231 18.7014 249.255 19.3927 248.351 20.1299C243.946 23.7256 239.229 26.8819 234.543 30.0816C231.255 32.3281 227.952 34.551 224.638 36.7578C223.471 37.5347 222.975 38.4669 223.182 39.9612C223.557 42.6694 223.729 45.4062 223.966 48.133C224.364 52.703 221.622 56.6288 216.688 57.7731C215.386 58.0747 214.065 58.2075 212.73 58.2088C200.828 58.2113 188.927 58.2175 177.025 58.2001C175.566 58.1976 174.287 58.5166 173.132 59.481C171.321 60.9939 169.139 61.3973 166.855 61.3973C159.191 61.3973 151.526 61.3973 143.861 61.3973C137.839 61.3973 131.817 61.3824 125.795 61.4023C121.88 61.4147 118.882 59.8111 116.831 56.4116C116.202 55.3678 115.551 54.3289 114.733 53.4179C112.958 51.442 110.66 50.6141 108.105 50.5781C103.512 50.5123 98.9172 50.5099 94.3238 50.5794C91.9395 50.6154 89.9352 51.7336 88.2312 53.3596C86.5873 54.9284 84.9961 56.5531 83.4086 58.179C81.2756 60.3647 78.7025 61.4035 75.6721 61.4023C57.653 61.3924 39.6338 61.3973 21.6159 61.3973C19.5209 61.3973 17.4271 61.3973 15.332 61.3973C10.9079 61.3948 6.98505 58.6047 5.56181 54.4505C4.09689 50.1723 5.4711 45.5762 8.96362 42.7451Z" fill="#81868E"/>
<path d="M15.2634 56.6227C35.4254 56.6227 55.5874 56.6177 75.7481 56.6326C77.495 56.6339 78.9268 56.0307 80.1429 54.7821C81.712 53.171 83.2836 51.5588 84.9054 50.0023C87.465 47.5448 90.4844 45.9313 94.0431 45.8283C98.7995 45.6918 103.564 45.7154 108.323 45.8209C111.687 45.8953 114.753 46.9876 117.304 49.3098C118.752 50.6279 119.822 52.2489 120.816 53.9157C121.926 55.7762 123.507 56.6426 125.657 56.6326C132.322 56.6028 138.987 56.6215 145.652 56.6215C152.793 56.6215 159.935 56.6153 167.076 56.6264C168.429 56.6289 169.642 56.3112 170.706 55.4113C172.363 54.0101 174.344 53.4565 176.459 53.4528C188.432 53.4317 200.405 53.4354 212.378 53.4366C213.188 53.4366 213.995 53.4242 214.797 53.2964C217.225 52.9116 219.672 51.7983 219.248 47.9966C218.995 45.7303 218.791 43.4577 218.599 41.1839C218.511 40.1351 218.268 39.0913 218.455 38.0276C218.857 35.7315 220.139 34.0671 222.029 32.7986C227.351 29.2278 232.693 25.6868 237.934 21.9931C240.76 20.001 243.606 18.0325 246.212 15.7438C247.286 14.8018 247.557 13.5743 247.059 12.2946C246.583 11.0671 245.444 10.2765 244.123 10.2765C217.13 10.2752 190.137 10.279 163.143 10.269C160.364 10.269 157.77 10.8201 155.49 12.5218C154.436 13.3086 153.442 14.1663 152.522 15.1083C148.417 19.3109 144.965 24.0583 141.416 28.7264C138.417 32.6708 135.472 36.6599 131.941 40.1537C130.2 41.8765 128.35 43.4664 126.096 44.4568C123.458 45.6148 120.651 45.945 117.804 45.8755C116.356 45.8395 114.919 45.6335 113.601 44.931C111.359 43.737 110.76 41.4048 112.163 39.2824C113.126 37.8253 114.489 36.8162 115.958 35.9611C118.345 34.5697 120.745 33.2057 122.888 31.4333C125.305 29.4326 127.409 27.1761 128.636 24.2098C130.305 20.1735 129.372 16.5257 126.009 13.9627C124.71 12.9723 123.258 12.2648 121.72 11.7386C118.809 10.7419 115.804 10.3832 112.745 10.3832C104.89 10.3832 97.0342 10.3832 89.1788 10.3832C81.2523 10.3832 73.3258 10.3832 65.3993 10.3832C63.8277 10.3832 62.2647 10.4962 60.7164 10.7779C56.4639 11.5524 52.7372 13.4961 49.3317 16.1025C43.2465 20.7606 37.4052 25.729 31.4462 30.5471C24.8939 35.8469 18.3771 41.1913 11.8358 46.5048C9.95166 48.0351 9.20264 50.5373 9.99333 52.8446C10.7803 55.1383 12.8459 56.619 15.2646 56.619L15.2634 56.6227ZM196.311 31.1292C196.151 27.0955 196.048 23.0592 195.924 19.023C195.909 18.4955 195.911 17.963 195.844 17.4405C195.79 17.0259 195.949 16.9515 196.307 16.9515C200.854 16.9589 205.4 16.9589 209.947 16.9515C210.297 16.9515 210.375 17.0359 210.32 17.4082C210.027 19.3779 209.772 21.3526 209.507 23.3261C209.492 23.4378 209.505 23.552 209.505 23.7741C210.916 22.7973 212.262 21.8689 213.605 20.9381C215.388 19.7031 217.173 18.4694 218.949 17.2245C219.215 17.0383 219.476 16.9515 219.802 16.9515C224.23 16.9589 228.658 16.9564 233.084 16.9564C233.173 16.9564 233.26 16.9651 233.366 16.9701C233.323 17.2692 233.081 17.3089 232.916 17.4119C225.599 22.0588 218.282 26.707 210.952 31.334C210.441 31.6567 210.19 31.9621 210.232 32.6286C210.492 36.7269 210.699 40.8302 210.922 44.931C210.978 45.9624 211.004 46.9963 211.091 48.0252C211.127 48.4484 210.965 48.5055 210.617 48.5043C205.951 48.4981 201.285 48.4943 196.62 48.5092C196.165 48.5105 196.041 48.369 196.092 47.9259C196.322 45.9227 196.529 43.9157 196.745 41.9112C196.808 41.3155 196.875 40.7209 196.941 40.1227C196.673 40.0482 196.54 40.2555 196.378 40.3672C192.635 42.9588 188.894 45.554 185.16 48.158C184.856 48.3702 184.565 48.5092 184.182 48.508C179.564 48.4981 174.946 48.5018 170.327 48.5018C170.217 48.5018 170.106 48.4919 169.789 48.4757C170.465 48.0388 170.969 47.705 171.48 47.3847C179.559 42.3394 187.635 37.2904 195.723 32.2624C196.189 31.9732 196.331 31.6952 196.309 31.1292H196.311ZM135.763 46.7207C143.226 36.9726 150.697 27.2283 158.16 17.479C158.402 17.1637 158.621 16.944 159.077 16.944C169.742 16.9601 180.406 16.9564 191.071 16.9577C191.166 16.9577 191.26 16.9676 191.522 16.9812C190.41 18.4334 189.379 19.7751 188.352 21.1193C187.611 22.0886 186.853 23.0468 186.141 24.0372C185.829 24.4704 185.49 24.628 184.954 24.6256C178.456 24.6057 171.956 24.6194 165.458 24.5995C164.901 24.5983 164.548 24.7584 164.22 25.2188C163.461 26.285 162.638 27.3052 161.756 28.4545H178.74C177.552 30.0085 176.456 31.4457 175.357 32.8805C174.644 33.8114 173.906 34.7236 173.225 35.6781C172.953 36.0579 172.66 36.1721 172.214 36.1708C167 36.1572 161.786 36.1696 156.574 36.1497C156.043 36.1473 155.713 36.2962 155.395 36.7393C154.533 37.9407 153.605 39.0938 152.612 40.3858H174.62C173.412 41.9683 172.303 43.4242 171.191 44.8776C170.377 45.9425 169.551 46.9975 168.748 48.0711C168.53 48.3628 168.304 48.508 167.923 48.508C156.878 48.4968 145.831 48.4993 134.786 48.4968C134.718 48.4968 134.65 48.4794 134.52 48.4621C134.849 47.7931 135.337 47.2755 135.762 46.7195L135.763 46.7207ZM89.2548 17.2158C89.5343 16.8497 89.8187 16.7243 90.2649 16.7243C97.9034 16.7367 105.542 16.728 113.18 16.7367C115.11 16.7392 117.025 16.8733 118.85 17.6043C121.188 18.5401 122.045 20.3138 121.276 22.7241C120.529 25.0674 119.041 26.944 117.41 28.6941C113.039 33.382 107.617 35.9834 101.335 36.8647C98.4906 37.2643 95.638 37.1054 92.7866 37.1377C90.7406 37.1613 88.6934 37.1588 86.6474 37.1303C86.1656 37.1241 85.8726 37.2854 85.5858 37.664C82.9967 41.0759 80.3868 44.4705 77.7904 47.8762C77.6041 48.1195 77.4276 48.2573 77.0954 48.256C73.289 48.2424 69.4814 48.2473 65.4998 48.2473C66.6239 46.7766 67.6622 45.4138 68.7042 44.0547C75.5569 35.1097 82.4132 26.1671 89.2548 17.2146V17.2158ZM27.3873 43.3832C33.3377 38.4025 39.2893 33.4242 45.2397 28.4421C49.7608 24.6566 54.2781 20.8661 58.7979 17.0793C59.0357 16.8807 59.2736 16.7243 59.6217 16.7256C64.4308 16.738 69.2387 16.7343 74.0478 16.738C74.1631 16.738 74.2783 16.769 74.4708 16.7951C74.049 17.9729 73.647 19.1173 73.2289 20.2567C69.9154 29.301 66.5908 38.3404 63.2981 47.3922C63.0554 48.0587 62.7661 48.2784 62.0502 48.2697C58.0526 48.2262 54.0538 48.2486 49.9483 48.2486C50.386 47.2097 50.7979 46.2329 51.2061 45.2648C50.9817 45.0216 50.7292 45.1196 50.5085 45.1196C46.533 45.1122 42.5575 45.1209 38.582 45.1047C38.1174 45.1022 37.7754 45.2425 37.4383 45.5565C36.5642 46.3707 35.6571 47.1489 34.7683 47.9457C34.5881 48.1071 34.4189 48.2523 34.1505 48.2511C30.0364 48.2461 25.9224 48.2473 21.584 48.2473C23.6263 46.5345 25.5056 44.957 27.3873 43.382V43.3832Z" fill="#81868E"/>
<path d="M54.1567 37.4321C54.5429 37.4359 54.6189 37.2162 54.7341 36.9419C55.4414 35.27 56.1635 33.6044 56.8769 31.9363C57.6443 30.1416 58.4093 28.3456 59.1767 26.5509C59.1301 26.5099 59.0835 26.4677 59.0369 26.4268C54.9584 30.0534 50.8799 33.6789 46.6678 37.4222C49.3072 37.4222 51.7319 37.4123 54.1567 37.4321Z" fill="#81868E"/>
<path d="M98.8314 30.324C102.031 30.2929 104.561 28.9885 106.276 26.2058C107.297 24.5476 106.89 23.7446 104.972 23.5596C102.292 23.3002 99.6073 23.4951 96.9251 23.4206C96.5512 23.4107 96.3722 23.6081 96.1786 23.8612C95.0789 25.306 93.9744 26.7469 92.8699 28.1879C92.3526 28.8631 91.8353 29.5371 91.2272 30.3289C93.8898 30.3289 96.36 30.3488 98.8301 30.324H98.8314Z" fill="#81868E"/>
</g>
<defs>
<clipPath id="clip0_115_67">
<rect width="257" height="66" fill="white" transform="translate(0 0.461426)"/>
</clipPath>
</defs>
</svg>
