<svg width="210" height="65" viewBox="0 0 210 65" fill="none" xmlns="http://www.w3.org/2000/svg">
<path fill-rule="evenodd" clip-rule="evenodd" d="M59.0853 0.775665H79.3927L73.3674 16.3664H53.0515L56.931 6.35177L65.0591 4.98145L52.9485 4.55914L21.4231 2.73204H58.33L59.0853 0.775665ZM4.0855 36.249H19.3117L15.2262 46.7893H0L4.0855 36.249ZM45.3439 36.249H65.6685L60.0466 50.771H39.7221C46.228 33.9824 35.8512 60.7684 45.3439 36.249ZM15.8614 6.01566C10.188 20.3567 19.5692 -3.35255 11.7673 16.375H27.0021L31.1305 6.01566H15.8614ZM28.4526 18.0297L21.981 34.5857H43.9621L50.4336 18.0297H28.4526ZM74.7493 18.0642H94.0867L87.598 34.6029H68.2863L74.7493 18.0642Z" fill="white"/>
<path fill-rule="evenodd" clip-rule="evenodd" d="M191.873 10.1956L182.131 34.5943H196.173L205.228 11.902L198.902 10.1956H205.906L209.991 0H195.718L193.169 6.66203L193.512 0H153.824L153.644 0.439539L153.472 0.86184L153.309 1.26691L153.155 1.65473L150.177 9.10965L149.747 10.187H149.765C149.189 11.6262 148.366 13.6774 146.984 17.1075L145.662 20.4084H166.759L165.403 23.7954H144.34L140.031 34.577H175.127L182.672 15.72C182.732 15.5562 182.749 15.4269 182.775 15.2632C182.895 14.3496 182.251 13.5998 181.298 13.5998H162.476L163.12 11.8934L156.794 10.187H191.864L191.873 10.1956Z" fill="white"/>
<path fill-rule="evenodd" clip-rule="evenodd" d="M97.6572 0L108.91 7.04124L107.648 10.1956H126.942L131.869 13.6085H106.292L97.9061 34.5943H111.939L116.231 23.8126H136.006C136.753 23.8126 137.482 23.3128 137.791 22.563C140.538 15.7114 143.233 8.98038 145.971 2.12875C146.031 1.965 146.048 1.83572 146.074 1.67197C146.194 0.75842 145.55 0.0086184 144.598 0.0086184H97.6658L97.6572 0Z" fill="white"/>
<path fill-rule="evenodd" clip-rule="evenodd" d="M74.2257 45.1949L74.3029 41.8854C74.3115 41.6441 74.1313 41.4718 73.9081 41.4718H70.4749C69.2132 44.5744 67.9515 47.6684 66.6898 50.771H70.535L72.1314 46.8583L70.4148 46.3929H72.3288L72.2344 50.5383L74.8179 47.2633L73.3846 50.7796H77.2212L81.0062 41.4804H77.1611L74.2257 45.2035V45.1949ZM82.9803 41.4631H91.6148C91.8723 41.4631 92.0526 41.6786 92.0182 41.9285C92.0182 41.9716 91.9925 42.0061 91.9753 42.0578L88.5679 50.4349C88.482 50.6418 88.2846 50.7796 88.0786 50.7796H79.4441C79.1867 50.7796 79.0064 50.5642 79.0407 50.3229C79.0407 50.2798 79.0493 50.2453 79.0665 50.2022L82.4739 41.8251C82.5598 41.6183 82.7572 41.4718 82.9803 41.4718V41.4631ZM85.7269 47.9873L87.2461 44.2641H83.4009L85.1347 44.7295L83.8043 47.9873H85.7183H85.7269ZM93.0224 50.7796H96.8504L99.3223 44.7209L97.58 44.2641H102.386L103.519 41.4631H93.9322L92.7907 44.2641H95.666L93.0139 50.7796H93.0224ZM105.433 41.4718H114.077C114.334 41.4718 114.514 41.6872 114.48 41.9372C114.48 41.9803 114.454 42.0147 114.437 42.0664L111.03 50.4435C110.944 50.6504 110.746 50.7883 110.54 50.7883H101.906C101.648 50.7883 101.468 50.5728 101.502 50.3315C101.502 50.2884 101.511 50.2539 101.528 50.2108L104.936 41.8337C105.021 41.6269 105.219 41.4804 105.442 41.4804L105.433 41.4718ZM108.18 47.9959L109.699 44.2727H105.854L107.588 44.7381L106.257 47.9959H108.171H108.18ZM117.475 47.9959H119.389L118.265 50.7883H122.093L123.612 47.0651L123.029 46.1343L124.368 45.2122L125.646 42.0664C125.664 42.0233 125.672 41.9889 125.672 41.9372C125.706 41.6872 125.535 41.4718 125.269 41.4718H116.282L112.497 50.7796H116.325L117.467 47.9873L117.475 47.9959ZM120.909 44.2727L120.531 45.1949H118.617L118.806 44.7295L117.063 44.2727H120.909ZM135.337 45.7896L133.448 50.4435C133.362 50.6504 133.165 50.7883 132.95 50.7883H123.715L124.857 47.9959H130.616L130.994 47.0651H125.835C125.578 47.0651 125.397 46.8497 125.432 46.5997C125.432 46.5652 125.44 46.5222 125.458 46.4877L127.354 41.8337C127.44 41.6269 127.646 41.4804 127.844 41.4804H137.096L135.955 44.2814H128.281L130.007 44.7468L129.818 45.2122H134.976C135.225 45.2122 135.397 45.419 135.362 45.6689C135.362 45.712 135.354 45.7465 135.337 45.7982V45.7896ZM138.744 41.4718L134.959 50.7796H138.804L139.928 47.9873H145.336C145.542 47.9873 145.756 47.8408 145.825 47.6425L148.108 42.0492C148.125 42.0061 148.134 41.9716 148.134 41.9199C148.168 41.67 147.996 41.4545 147.73 41.4545H138.744V41.4718ZM142.984 45.2035H141.07L141.259 44.7381L139.534 44.2727H143.362L142.984 45.2035ZM150.228 41.4718H158.863C159.12 41.4718 159.3 41.6872 159.257 41.9372C159.257 41.9803 159.232 42.0147 159.214 42.0664L155.807 50.4435C155.721 50.6504 155.524 50.7883 155.318 50.7883H146.675C146.417 50.7883 146.237 50.5728 146.271 50.3315C146.271 50.2884 146.28 50.2539 146.297 50.2108L149.704 41.8337C149.79 41.6269 149.988 41.4804 150.211 41.4804L150.228 41.4718ZM152.975 47.9959L154.494 44.2727H150.649L152.382 44.7381L151.052 47.9959H152.966H152.975ZM162.27 47.9959H164.184L163.06 50.7883H166.888L168.407 47.0651L167.823 46.1343L169.162 45.2122L170.441 42.0664C170.458 42.0233 170.467 41.9889 170.467 41.9372C170.501 41.6872 170.329 41.4718 170.063 41.4718H161.077L157.292 50.7796H161.12L162.261 47.9873L162.27 47.9959ZM165.703 44.2727L165.326 45.1949H163.412L163.6 44.7295L161.858 44.2727H165.703ZM171.48 50.7883H175.308L177.779 44.7295L176.037 44.2727H180.844L181.977 41.4718H172.389L171.248 44.2727H174.123L171.48 50.7883ZM191.572 45.7896L189.684 50.4435C189.598 50.6504 189.401 50.7883 189.186 50.7883H179.951L181.092 47.9959H186.852L187.229 47.0651H182.071C181.813 47.0651 181.633 46.8497 181.668 46.5997C181.668 46.5652 181.676 46.5222 181.693 46.4877L183.59 41.8337C183.676 41.6269 183.882 41.4804 184.079 41.4804H193.332L192.19 44.2814H184.517L186.242 44.7468L186.053 45.2122H191.212C191.461 45.2122 191.632 45.419 191.598 45.6689C191.598 45.712 191.589 45.7465 191.572 45.7982V45.7896Z" fill="#CE0F18"/>
<path fill-rule="evenodd" clip-rule="evenodd" d="M162.03 55.7008H158.184L155.541 62.2077H153.627L151.893 61.7423H153.824L156.279 55.7008H152.434C151.421 58.1915 151.052 59.0964 149.447 63.0523L148.889 64.4226C148.872 64.4657 148.863 64.5002 148.863 64.5432C148.829 64.7846 149.001 65 149.267 65H158.253L162.038 55.7008H162.03ZM165.514 57.864L158.193 55.7008H175.041L173.9 58.4759H166.227L167.952 58.9413L167.772 59.4067H172.921C173.179 59.4067 173.359 59.6135 173.325 59.8635C173.325 59.9065 173.316 59.941 173.299 59.9927L171.256 65H161.661L162.802 62.199H168.561L168.939 61.2769H163.18L164.562 57.864H165.523H165.514ZM170.741 55.6922L178.535 57.864H177.573L174.664 65H178.509L179.651 62.199H181.565L180.423 65H184.26L187.813 56.2696C187.83 56.2265 187.839 56.192 187.839 56.1403C187.873 55.899 187.701 55.6835 187.452 55.6835H170.741V55.6922ZM182.32 60.3461H180.389L180.964 58.9499L179.239 58.4845H183.084L182.32 60.3547V60.3461Z" fill="#CE0F18"/>
</svg>
