<svg width="32" height="32" viewBox="0 0 32 32" fill="none" xmlns="http://www.w3.org/2000/svg">
<path d="M2.66672 21.6L2.66672 10.4C2.66672 6.12905 6.12905 2.66665 10.4 2.66665L21.6 2.66665C25.8711 2.66665 29.3334 6.12905 29.3334 10.4L29.3334 21.6C29.3334 25.871 25.8711 29.3333 21.6 29.3333L10.4001 29.3333C6.12905 29.3333 2.66672 25.871 2.66672 21.6ZM5.33336 21.8666C5.33336 24.5176 7.4824 26.6666 10.1334 26.6666L21.8667 26.6666C24.5176 26.6666 26.6667 24.5176 26.6667 21.8666L26.6667 10.1333C26.6667 7.48238 24.5176 5.33331 21.8667 5.33331L10.1334 5.33331C7.4824 5.33331 5.33336 7.48238 5.33336 10.1333L5.33336 21.8666ZM7.33336 8.99998C7.33336 8.07945 8.07956 7.33331 9.00002 7.33331C9.9205 7.33331 10.6667 8.07945 10.6667 8.99998C10.6667 9.92051 9.9205 10.6666 9.00002 10.6666C8.07956 10.6666 7.33336 9.92051 7.33336 8.99998ZM9.33336 16C9.33336 12.3181 12.3181 9.33331 16 9.33331C19.6819 9.33331 22.6667 12.3181 22.6667 16C22.6667 19.6819 19.6819 22.6666 16 22.6666C12.3181 22.6666 9.33336 19.6819 9.33336 16ZM12 16C12 18.2092 13.791 20 16 20C18.2092 20 20 18.2092 20 16C20 13.7908 18.2092 12 16 12C13.791 12 12 13.7908 12 16Z" fill="white"/>
</svg>
